<mxfile host="app.diagrams.net" modified="2023-10-19T03:26:20.062Z" agent="Mozilla/5.0 (X11; Linux x86_64; rv:109.0) Gecko/20100101 Firefox/114.0" version="21.6.6" etag="TPy7qF9wb9tcgeHKPFKW" type="github">
  <diagram name="第 1 页" id="3MeA3Xyt5cZuB8qbz1xq">
    <mxGraphModel>
      <root>
        <mxCell id="0" />
        <mxCell id="1" parent="0" />
      </root>
    </mxGraphModel>
  </diagram>
</mxfile>
